<mxfile host="65bd71144e">
    <diagram id="8ewz-Q1UwoXJFk45hxHk" name="Page-1">
        <mxGraphModel dx="2484" dy="1136" grid="1" gridSize="10" guides="1" tooltips="1" connect="1" arrows="1" fold="1" page="1" pageScale="1" pageWidth="1654" pageHeight="2336" math="0" shadow="0">
            <root>
                <mxCell id="0"/>
                <mxCell id="1" parent="0"/>
                <mxCell id="51" value="" style="shape=table;startSize=0;container=1;collapsible=0;childLayout=tableLayout;" parent="1" vertex="1">
                    <mxGeometry x="400" y="120" width="1120" height="1530" as="geometry"/>
                </mxCell>
                <mxCell id="52" value="" style="shape=tableRow;horizontal=0;startSize=0;swimlaneHead=0;swimlaneBody=0;top=0;left=0;bottom=0;right=0;collapsible=0;dropTarget=0;fillColor=none;points=[[0,0.5],[1,0.5]];portConstraint=eastwest;" parent="51" vertex="1">
                    <mxGeometry width="1120" height="57" as="geometry"/>
                </mxCell>
                <mxCell id="53" value="&lt;font style=&quot;font-size: 14px;&quot;&gt;&lt;b&gt;Customer&lt;/b&gt;&lt;/font&gt;" style="shape=partialRectangle;html=1;whiteSpace=wrap;connectable=0;overflow=hidden;fillColor=none;top=0;left=0;bottom=0;right=0;pointerEvents=1;" parent="52" vertex="1">
                    <mxGeometry width="518" height="57" as="geometry">
                        <mxRectangle width="518" height="57" as="alternateBounds"/>
                    </mxGeometry>
                </mxCell>
                <mxCell id="54" value="&lt;font style=&quot;font-size: 14px;&quot;&gt;&lt;b&gt;Manage Account Subsystem&lt;/b&gt;&lt;/font&gt;" style="shape=partialRectangle;html=1;whiteSpace=wrap;connectable=0;overflow=hidden;fillColor=none;top=0;left=0;bottom=0;right=0;pointerEvents=1;" parent="52" vertex="1">
                    <mxGeometry x="518" width="602" height="57" as="geometry">
                        <mxRectangle width="602" height="57" as="alternateBounds"/>
                    </mxGeometry>
                </mxCell>
                <mxCell id="55" value="" style="shape=tableRow;horizontal=0;startSize=0;swimlaneHead=0;swimlaneBody=0;top=0;left=0;bottom=0;right=0;collapsible=0;dropTarget=0;fillColor=none;points=[[0,0.5],[1,0.5]];portConstraint=eastwest;" parent="51" vertex="1">
                    <mxGeometry y="57" width="1120" height="1473" as="geometry"/>
                </mxCell>
                <mxCell id="56" value="" style="shape=partialRectangle;html=1;whiteSpace=wrap;connectable=0;overflow=hidden;fillColor=none;top=0;left=0;bottom=0;right=0;pointerEvents=1;" parent="55" vertex="1">
                    <mxGeometry width="518" height="1473" as="geometry">
                        <mxRectangle width="518" height="1473" as="alternateBounds"/>
                    </mxGeometry>
                </mxCell>
                <mxCell id="57" value="" style="shape=partialRectangle;html=1;whiteSpace=wrap;connectable=0;overflow=hidden;fillColor=none;top=0;left=0;bottom=0;right=0;pointerEvents=1;" parent="55" vertex="1">
                    <mxGeometry x="518" width="602" height="1473" as="geometry">
                        <mxRectangle width="602" height="1473" as="alternateBounds"/>
                    </mxGeometry>
                </mxCell>
                <mxCell id="58" value="" style="shape=ellipse;html=1;fillColor=strokeColor;fontSize=18;fontColor=#ffffff;" parent="1" vertex="1">
                    <mxGeometry x="640" y="210" width="40" height="40" as="geometry"/>
                </mxCell>
                <mxCell id="10" value="Manage Account Module" style="shape=umlFrame;whiteSpace=wrap;html=1;width=120;height=30;" parent="1" vertex="1">
                    <mxGeometry x="320" y="40" width="1280" height="1640" as="geometry"/>
                </mxCell>
                <mxCell id="77" style="edgeStyle=orthogonalEdgeStyle;html=1;elbow=vertical;exitX=1;exitY=0.5;exitDx=0;exitDy=0;" parent="1" source="59" target="72" edge="1">
                    <mxGeometry relative="1" as="geometry">
                        <Array as="points">
                            <mxPoint x="890" y="320"/>
                            <mxPoint x="890" y="320"/>
                        </Array>
                    </mxGeometry>
                </mxCell>
                <mxCell id="78" value="&lt;font style=&quot;font-size: 14px;&quot;&gt;Log In&lt;/font&gt;" style="edgeLabel;html=1;align=center;verticalAlign=middle;resizable=0;points=[];" parent="77" vertex="1" connectable="0">
                    <mxGeometry x="0.1274" y="-2" relative="1" as="geometry">
                        <mxPoint x="-46" y="-2" as="offset"/>
                    </mxGeometry>
                </mxCell>
                <mxCell id="79" style="edgeStyle=orthogonalEdgeStyle;html=1;entryX=0;entryY=0.5;entryDx=0;entryDy=0;elbow=vertical;exitX=0;exitY=0.5;exitDx=0;exitDy=0;" parent="1" source="59" target="66" edge="1">
                    <mxGeometry relative="1" as="geometry">
                        <Array as="points">
                            <mxPoint x="440" y="320"/>
                            <mxPoint x="440" y="700"/>
                        </Array>
                    </mxGeometry>
                </mxCell>
                <mxCell id="80" value="&lt;font style=&quot;font-size: 14px;&quot;&gt;Register&amp;nbsp;&lt;/font&gt;" style="edgeLabel;html=1;align=center;verticalAlign=middle;resizable=0;points=[];" parent="79" vertex="1" connectable="0">
                    <mxGeometry x="0.4757" y="2" relative="1" as="geometry">
                        <mxPoint as="offset"/>
                    </mxGeometry>
                </mxCell>
                <mxCell id="59" value="" style="shape=rhombus;html=1;labelPosition=right;align=left;verticalAlign=middle" parent="1" vertex="1">
                    <mxGeometry x="640" y="300" width="40" height="40" as="geometry"/>
                </mxCell>
                <mxCell id="60" value="" style="edgeStyle=elbowEdgeStyle;html=1;elbow=horizontal;align=right;verticalAlign=bottom;rounded=0;labelBackgroundColor=none;endArrow=open;endSize=12;exitX=0.5;exitY=1;exitDx=0;exitDy=0;" parent="1" source="58" target="59" edge="1">
                    <mxGeometry relative="1" as="geometry">
                        <mxPoint x="580" y="260" as="sourcePoint"/>
                    </mxGeometry>
                </mxCell>
                <mxCell id="63" value="Start" style="edgeLabel;html=1;align=center;verticalAlign=middle;resizable=0;points=[];" parent="60" vertex="1" connectable="0">
                    <mxGeometry x="-0.3833" y="3" relative="1" as="geometry">
                        <mxPoint as="offset"/>
                    </mxGeometry>
                </mxCell>
                <mxCell id="114" style="edgeStyle=orthogonalEdgeStyle;html=1;entryX=1;entryY=0.5;entryDx=0;entryDy=0;fontSize=14;elbow=vertical;exitX=1;exitY=0.5;exitDx=0;exitDy=0;" parent="1" source="65" target="102" edge="1">
                    <mxGeometry relative="1" as="geometry">
                        <Array as="points">
                            <mxPoint x="1460" y="540"/>
                            <mxPoint x="1460" y="1240"/>
                        </Array>
                    </mxGeometry>
                </mxCell>
                <mxCell id="65" value="Insert matric id and password" style="rounded=1;whiteSpace=wrap;html=1;" parent="1" vertex="1">
                    <mxGeometry x="600" y="510" width="140" height="60" as="geometry"/>
                </mxCell>
                <mxCell id="76" style="edgeStyle=orthogonalEdgeStyle;html=1;exitX=0.573;exitY=1.01;exitDx=0;exitDy=0;entryX=0;entryY=0.5;entryDx=0;entryDy=0;elbow=vertical;exitPerimeter=0;" parent="1" source="66" target="74" edge="1">
                    <mxGeometry relative="1" as="geometry">
                        <Array as="points">
                            <mxPoint x="1080" y="760"/>
                            <mxPoint x="440" y="760"/>
                            <mxPoint x="440" y="840"/>
                        </Array>
                    </mxGeometry>
                </mxCell>
                <mxCell id="66" value="Display Register Form" style="rounded=1;whiteSpace=wrap;html=1;" parent="1" vertex="1">
                    <mxGeometry x="1000" y="670" width="140" height="60" as="geometry"/>
                </mxCell>
                <mxCell id="71" style="edgeStyle=orthogonalEdgeStyle;html=1;entryX=0;entryY=0.5;entryDx=0;entryDy=0;elbow=vertical;exitX=0.5;exitY=1;exitDx=0;exitDy=0;" parent="1" source="72" target="65" edge="1">
                    <mxGeometry relative="1" as="geometry">
                        <mxPoint x="1030.0588235294117" y="310" as="sourcePoint"/>
                        <Array as="points">
                            <mxPoint x="1070" y="430"/>
                            <mxPoint x="480" y="430"/>
                            <mxPoint x="480" y="540"/>
                        </Array>
                    </mxGeometry>
                </mxCell>
                <mxCell id="72" value="Display Log In Page" style="rounded=1;whiteSpace=wrap;html=1;" parent="1" vertex="1">
                    <mxGeometry x="1000" y="350" width="140" height="60" as="geometry"/>
                </mxCell>
                <mxCell id="85" style="edgeStyle=orthogonalEdgeStyle;html=1;entryX=0.5;entryY=0;entryDx=0;entryDy=0;elbow=vertical;" parent="1" source="73" target="84" edge="1">
                    <mxGeometry relative="1" as="geometry"/>
                </mxCell>
                <mxCell id="73" value="Validate details" style="rounded=1;whiteSpace=wrap;html=1;" parent="1" vertex="1">
                    <mxGeometry x="1000" y="810" width="140" height="60" as="geometry"/>
                </mxCell>
                <mxCell id="81" style="edgeStyle=orthogonalEdgeStyle;html=1;entryX=0;entryY=0.5;entryDx=0;entryDy=0;elbow=vertical;" parent="1" source="74" target="73" edge="1">
                    <mxGeometry relative="1" as="geometry"/>
                </mxCell>
                <mxCell id="74" value="Enter user details" style="rounded=1;whiteSpace=wrap;html=1;" parent="1" vertex="1">
                    <mxGeometry x="610" y="810" width="140" height="60" as="geometry"/>
                </mxCell>
                <mxCell id="100" style="edgeStyle=orthogonalEdgeStyle;html=1;entryX=1;entryY=0.5;entryDx=0;entryDy=0;fontSize=14;elbow=vertical;" parent="1" source="82" target="96" edge="1">
                    <mxGeometry relative="1" as="geometry"/>
                </mxCell>
                <mxCell id="82" value="Display Log In Page" style="rounded=1;whiteSpace=wrap;html=1;" parent="1" vertex="1">
                    <mxGeometry x="1000" y="1060" width="140" height="60" as="geometry"/>
                </mxCell>
                <mxCell id="86" style="edgeStyle=orthogonalEdgeStyle;html=1;elbow=vertical;" parent="1" source="84" target="82" edge="1">
                    <mxGeometry relative="1" as="geometry"/>
                </mxCell>
                <mxCell id="87" value="&lt;font style=&quot;font-size: 14px;&quot;&gt;True&lt;/font&gt;" style="edgeLabel;html=1;align=center;verticalAlign=middle;resizable=0;points=[];" parent="86" vertex="1" connectable="0">
                    <mxGeometry x="-0.121" y="5" relative="1" as="geometry">
                        <mxPoint x="1" as="offset"/>
                    </mxGeometry>
                </mxCell>
                <mxCell id="89" style="edgeStyle=orthogonalEdgeStyle;html=1;entryX=0;entryY=0.5;entryDx=0;entryDy=0;fontSize=14;elbow=vertical;" parent="1" source="84" target="88" edge="1">
                    <mxGeometry relative="1" as="geometry"/>
                </mxCell>
                <mxCell id="90" style="edgeStyle=orthogonalEdgeStyle;html=1;fontSize=14;elbow=vertical;" parent="1" source="84" target="88" edge="1">
                    <mxGeometry relative="1" as="geometry">
                        <Array as="points">
                            <mxPoint x="1200" y="940"/>
                            <mxPoint x="1200" y="940"/>
                        </Array>
                    </mxGeometry>
                </mxCell>
                <mxCell id="92" value="False" style="edgeLabel;html=1;align=center;verticalAlign=middle;resizable=0;points=[];fontSize=14;" parent="90" vertex="1" connectable="0">
                    <mxGeometry x="-0.1276" relative="1" as="geometry">
                        <mxPoint x="1" as="offset"/>
                    </mxGeometry>
                </mxCell>
                <mxCell id="84" value="" style="shape=rhombus;html=1;labelPosition=right;align=left;verticalAlign=middle" parent="1" vertex="1">
                    <mxGeometry x="1050" y="920" width="40" height="40" as="geometry"/>
                </mxCell>
                <mxCell id="93" style="edgeStyle=orthogonalEdgeStyle;html=1;entryX=1;entryY=0.5;entryDx=0;entryDy=0;fontSize=14;elbow=vertical;" parent="1" source="88" target="66" edge="1">
                    <mxGeometry relative="1" as="geometry">
                        <Array as="points">
                            <mxPoint x="1350" y="700"/>
                        </Array>
                    </mxGeometry>
                </mxCell>
                <mxCell id="88" value="Display Error" style="rounded=1;whiteSpace=wrap;html=1;" parent="1" vertex="1">
                    <mxGeometry x="1280" y="910" width="140" height="60" as="geometry"/>
                </mxCell>
                <mxCell id="113" style="edgeStyle=orthogonalEdgeStyle;html=1;entryX=0;entryY=0.5;entryDx=0;entryDy=0;fontSize=14;elbow=vertical;" parent="1" source="96" target="102" edge="1">
                    <mxGeometry relative="1" as="geometry">
                        <Array as="points">
                            <mxPoint x="680" y="1240"/>
                        </Array>
                    </mxGeometry>
                </mxCell>
                <mxCell id="96" value="Insert matric id and password" style="rounded=1;whiteSpace=wrap;html=1;" parent="1" vertex="1">
                    <mxGeometry x="610" y="1060" width="140" height="60" as="geometry"/>
                </mxCell>
                <mxCell id="104" style="edgeStyle=orthogonalEdgeStyle;html=1;fontSize=14;elbow=vertical;" parent="1" source="102" target="103" edge="1">
                    <mxGeometry relative="1" as="geometry"/>
                </mxCell>
                <mxCell id="102" value="Verify user" style="rounded=1;whiteSpace=wrap;html=1;" parent="1" vertex="1">
                    <mxGeometry x="1000" y="1210" width="140" height="60" as="geometry"/>
                </mxCell>
                <mxCell id="107" value="&lt;font style=&quot;font-size: 14px;&quot;&gt;False&lt;/font&gt;" style="edgeStyle=orthogonalEdgeStyle;html=1;fontSize=14;elbow=vertical;" parent="1" source="103" target="106" edge="1">
                    <mxGeometry relative="1" as="geometry"/>
                </mxCell>
                <mxCell id="108" value="True" style="edgeStyle=orthogonalEdgeStyle;html=1;exitX=1;exitY=0.5;exitDx=0;exitDy=0;entryX=0;entryY=0.5;entryDx=0;entryDy=0;fontSize=14;elbow=vertical;" parent="1" source="103" target="105" edge="1">
                    <mxGeometry relative="1" as="geometry"/>
                </mxCell>
                <mxCell id="103" value="" style="shape=rhombus;html=1;labelPosition=right;align=left;verticalAlign=middle" parent="1" vertex="1">
                    <mxGeometry x="1050" y="1340" width="40" height="40" as="geometry"/>
                </mxCell>
                <mxCell id="111" style="edgeStyle=orthogonalEdgeStyle;html=1;entryX=0.5;entryY=0;entryDx=0;entryDy=0;fontSize=14;elbow=vertical;" parent="1" source="105" target="109" edge="1">
                    <mxGeometry relative="1" as="geometry"/>
                </mxCell>
                <mxCell id="105" value="Redirect to Home Page" style="rounded=1;whiteSpace=wrap;html=1;" parent="1" vertex="1">
                    <mxGeometry x="1280" y="1330" width="140" height="60" as="geometry"/>
                </mxCell>
                <mxCell id="112" style="edgeStyle=orthogonalEdgeStyle;html=1;entryX=0;entryY=0.5;entryDx=0;entryDy=0;fontSize=14;elbow=vertical;" parent="1" source="106" target="96" edge="1">
                    <mxGeometry relative="1" as="geometry">
                        <Array as="points">
                            <mxPoint x="440" y="1460"/>
                            <mxPoint x="440" y="1090"/>
                        </Array>
                    </mxGeometry>
                </mxCell>
                <mxCell id="106" value="Display error" style="rounded=1;whiteSpace=wrap;html=1;" parent="1" vertex="1">
                    <mxGeometry x="1000" y="1430" width="140" height="60" as="geometry"/>
                </mxCell>
                <mxCell id="109" value="Ee" style="ellipse;html=1;shape=endState;fillColor=#000000;strokeColor=#ff0000;fontSize=14;" parent="1" vertex="1">
                    <mxGeometry x="1335" y="1560" width="30" height="30" as="geometry"/>
                </mxCell>
                <mxCell id="110" value="End" style="text;html=1;strokeColor=none;fillColor=none;align=center;verticalAlign=middle;whiteSpace=wrap;rounded=0;fontSize=14;" parent="1" vertex="1">
                    <mxGeometry x="1320" y="1590" width="60" height="30" as="geometry"/>
                </mxCell>
            </root>
        </mxGraphModel>
    </diagram>
</mxfile>